HIERARCHY
ROOT SimulationBone
{
	OFFSET 0.000000 0.000000 0.000000
	CHANNELS 6 Xposition Yposition Zposition Zrotation Yrotation Xrotation 
	JOINT Hips
	{
		OFFSET 0.000000 0.000000 0.000000
		CHANNELS 6 Xposition Yposition Zposition Zrotation Yrotation Xrotation 
		JOINT LeftUpLeg
		{
			OFFSET 0.103455 1.857829 10.548506
			CHANNELS 3 Zrotation Yrotation Xrotation
			JOINT LeftLeg
			{
				OFFSET 43.499996 -0.000034 0.000000
				CHANNELS 3 Zrotation Yrotation Xrotation
				JOINT LeftFoot
				{
					OFFSET 42.372192 0.000015 -0.000006
					CHANNELS 3 Zrotation Yrotation Xrotation
					JOINT LeftToe
					{
						OFFSET 17.299999 -0.000000 -0.000002
						CHANNELS 3 Zrotation Yrotation Xrotation
						End Site
						{
							OFFSET 0.000000 0.000000 0.000000
						}
					}
				}
			}
		}
		JOINT RightUpLeg
		{
			OFFSET 0.103461 1.857828 -10.548504
			CHANNELS 3 Zrotation Yrotation Xrotation
			JOINT RightLeg
			{
				OFFSET 43.500038 -0.000027 0.000010
				CHANNELS 3 Zrotation Yrotation Xrotation
				JOINT RightFoot
				{
					OFFSET 42.372265 -0.000004 0.000015
					CHANNELS 3 Zrotation Yrotation Xrotation
					JOINT RightToe
					{
						OFFSET 17.299992 -0.000005 0.000008
						CHANNELS 3 Zrotation Yrotation Xrotation
						End Site
						{
							OFFSET 0.000000 0.000000 0.000000
						}
					}
				}
			}
		}
		JOINT Spine
		{
			OFFSET 6.901968 -2.603732 0.000000
			CHANNELS 3 Zrotation Yrotation Xrotation
			JOINT Spine1
			{
				OFFSET 12.588099 -0.000001 0.000001
				CHANNELS 3 Zrotation Yrotation Xrotation
				JOINT Spine2
				{
					OFFSET 12.343203 -0.000001 -0.000000
					CHANNELS 3 Zrotation Yrotation Xrotation
					JOINT Neck
					{
						OFFSET 25.832890 -0.000002 0.000001
						CHANNELS 3 Zrotation Yrotation Xrotation
						JOINT Head
						{
							OFFSET 11.766614 0.000006 0.000000
							CHANNELS 3 Zrotation Yrotation Xrotation
							End Site
							{
								OFFSET 0.000000 0.000000 0.000000
							}
						}
					}
					JOINT LeftShoulder
					{
						OFFSET 19.745895 -1.480368 6.000105
						CHANNELS 3 Zrotation Yrotation Xrotation
						JOINT LeftArm
						{
							OFFSET 11.284125 -0.000008 -0.000020
							CHANNELS 3 Zrotation Yrotation Xrotation
							JOINT LeftForeArm
							{
								OFFSET 33.000050 0.000002 0.000037
								CHANNELS 3 Zrotation Yrotation Xrotation
								JOINT LeftHand
								{
									OFFSET 25.200003 0.000015 -0.000001
									CHANNELS 3 Zrotation Yrotation Xrotation
									End Site
									{
										OFFSET 0.000000 0.000000 0.000000
									}
								}
							}
						}
					}
					JOINT RightShoulder
					{
						OFFSET 19.746092 -1.480371 -6.000073
						CHANNELS 3 Zrotation Yrotation Xrotation
						JOINT RightArm
						{
							OFFSET 11.284139 -0.000016 -0.000008
							CHANNELS 3 Zrotation Yrotation Xrotation
							JOINT RightForeArm
							{
								OFFSET 33.000092 0.000014 0.000002
								CHANNELS 3 Zrotation Yrotation Xrotation
								JOINT RightHand
								{
									OFFSET 25.199774 0.000137 0.000428
									CHANNELS 3 Zrotation Yrotation Xrotation
									End Site
									{
										OFFSET 0.000000 0.000000 0.000000
									}
								}
							}
						}
					}
				}
			}
		}
	}
}
MOTION
Frames: 11
Frame Time: 0.033333
23.582240 0.000000 132.746438 0.000000 98.038036 0.000000 1.153858 91.659889 -1.244201 96.135945 -0.511153 -177.721777 -174.966401 -15.234607 173.251519 -50.215363 1.752965 1.119816 77.047846 -5.878952 -18.096779 21.454553 0.003088 0.000001 169.548409 2.629388 -174.680217 -27.391526 4.932810 18.018459 77.665528 -11.630607 4.814901 21.454558 -0.003114 -0.000018 8.630269 1.977723 -1.325340 7.207593 4.033832 -2.526653 6.888979 4.018647 -2.550988 -1.914848 4.398747 13.470405 -9.651038 -9.076150 17.384735 175.141022 -76.051636 3.565161 -12.154294 59.388365 25.298616 -62.998953 -16.169660 2.292410 6.197106 -10.141876 15.525293 153.674899 75.052113 -25.554926 5.188152 -50.410577 -18.667814 -48.336074 18.545794 -1.962620 12.666015 7.404685 -19.411645 
22.975017 0.000000 134.980613 0.000000 97.955481 0.000000 1.461120 91.298080 -0.970625 96.468641 -0.191769 -177.152285 -174.378582 -15.965200 173.742541 -52.061761 2.125999 3.076238 77.843823 -7.483769 -19.158462 21.454560 0.003095 0.000002 168.559110 2.774701 -174.659125 -27.729494 4.940428 18.214685 77.068043 -11.759177 4.839077 21.454553 -0.003108 -0.000014 8.570381 1.931797 -1.450593 7.084123 3.948404 -2.782060 6.765605 3.931685 -2.805867 -1.173957 4.419580 13.427553 -9.654443 -9.201154 17.380349 175.584984 -75.832401 3.118207 -12.987180 58.977427 24.221353 -62.367455 -16.537848 2.293302 6.261491 -11.113163 14.105725 155.663194 74.570093 -23.555704 5.377849 -50.810330 -17.737105 -48.841146 18.651138 -1.985895 12.572720 8.128868 -19.192036 
22.266629 0.000000 137.332528 0.000000 97.769493 0.000000 1.777190 90.890808 -0.696438 96.833607 0.096161 -176.481379 -173.977417 -16.429603 174.177187 -52.541852 2.358333 4.084634 77.837027 -8.229913 -19.150841 21.454538 0.003081 0.000000 167.617432 3.051093 -174.250010 -27.947493 4.840500 18.238581 76.413151 -11.811517 4.677979 21.454558 -0.003095 -0.000017 8.525310 1.874952 -1.543037 6.991823 3.839350 -2.971839 6.673420 3.821473 -2.994966 -0.302477 4.478724 13.253587 -9.634383 -9.259562 17.232385 175.993034 -75.447813 2.711436 -13.472166 58.331421 23.697439 -61.720718 -16.874419 2.291570 6.391139 -11.636666 12.723370 156.913528 74.201713 -22.300405 5.597923 -51.264453 -17.421709 -49.004340 18.723997 -1.996044 12.457877 8.687967 -18.738161 
21.462310 0.000000 139.792108 0.000000 97.500568 0.000000 2.041401 90.427940 -0.469784 97.151717 0.397119 -175.793363 -173.678105 -16.648895 174.604798 -50.891483 2.367965 4.396329 77.209510 -8.537626 -19.023701 21.454550 0.003096 -0.000007 166.531842 3.359303 -173.839338 -28.122720 4.595564 18.201001 75.610850 -11.785079 4.625465 21.454557 -0.003105 -0.000016 8.493848 1.811107 -1.585189 6.928822 3.713498 -3.060904 6.610492 3.695099 -3.083275 0.470260 4.619934 13.008728 -9.468423 -9.319423 17.018540 176.626971 -75.034710 2.073421 -13.953010 57.608049 23.589307 -60.773179 -17.193633 2.277320 6.464885 -11.961370 11.564232 157.878634 73.959617 -21.327923 5.724283 -51.706161 -17.771753 -48.865028 18.780138 -1.995262 12.463452 9.044256 -18.267799 
20.581380 0.000000 142.351682 0.000000 97.162509 0.000000 2.298705 89.931831 -0.377605 97.499334 0.501171 -175.591147 -172.938272 -16.004393 174.794745 -46.562837 2.197051 4.699760 76.221373 -8.497426 -17.559737 21.454551 0.003093 -0.000003 165.262438 3.889998 -174.019587 -28.414856 4.366220 18.108879 74.520820 -11.683449 4.722113 21.454557 -0.003099 -0.000017 8.514738 1.688441 -1.511649 6.975612 3.464572 -2.920320 6.657332 3.447011 -2.941180 1.273017 4.713190 12.799421 -9.536127 -9.239052 16.810774 177.807979 -74.651604 0.872384 -14.509834 57.040621 23.665101 -59.570779 -17.556962 2.256859 6.670005 -11.989591 10.526930 158.214078 73.745109 -20.996980 5.887556 -52.023017 -18.440959 -48.717953 18.712258 -1.986002 12.472983 8.921540 -18.275366 
19.639000 0.000000 145.005042 0.000000 96.759556 0.000000 2.465846 89.524109 -0.381123 97.698165 0.103788 -175.701101 -172.185422 -14.251096 175.430868 -42.580021 2.166600 5.599443 73.247365 -8.740994 -14.700799 21.454550 0.003094 0.000000 163.828275 4.994300 -174.056429 -28.456381 4.014848 17.624333 73.109744 -11.348968 4.669127 21.454555 -0.003104 -0.000016 8.569598 1.463828 -1.409748 7.092921 3.010990 -2.728232 6.774725 2.994604 -2.746341 1.778655 4.759325 12.675041 -9.744496 -9.051269 16.661705 179.012933 -74.174195 -0.351385 -14.912562 56.584282 23.804463 -58.259396 -17.948846 2.234841 7.043477 -11.949503 9.600799 157.685381 73.626803 -21.544307 5.924419 -52.276728 -19.349007 -48.809495 18.620165 -1.982805 12.543833 8.509145 -18.637860 
18.650024 0.000000 147.744727 0.000000 96.299810 0.000000 1.926808 88.470032 -0.636509 97.606854 0.487298 -175.611771 -172.267835 -13.020490 177.042670 -41.909539 1.590654 4.709797 81.253938 -6.874544 -14.584240 21.454553 0.003095 -0.000002 160.959664 5.647404 -174.157202 -29.512161 3.711002 17.219320 71.471420 -10.997627 4.781436 21.454560 -0.003108 -0.000017 8.683922 1.416292 -1.303493 7.325345 2.911983 -2.515675 7.007144 2.896865 -2.533199 1.814455 5.042775 12.561988 -10.039587 -9.120676 16.675012 179.776986 -73.758789 -1.126236 -15.365622 56.172678 23.758253 -56.845530 -18.245370 2.203268 7.360387 -12.102867 8.719007 157.030366 73.613894 -22.214808 5.652166 -52.351255 -20.229280 -49.268518 18.521084 -1.991099 12.583421 8.013438 -19.089600 
17.619731 0.000000 150.560234 0.000000 95.760229 0.000000 1.261576 87.486443 -0.922330 97.421850 0.660583 -175.915096 -171.730777 -11.475295 175.994085 -39.802053 0.744299 2.830349 89.591878 -4.008271 -12.508356 21.454551 0.003094 -0.000001 158.416320 6.337397 -174.641503 -29.242167 3.471114 16.731836 69.083627 -10.689510 4.540627 21.454557 -0.003118 -0.000017 8.852132 1.292145 -1.137560 7.668084 2.656590 -2.187693 7.349861 2.643468 -2.203695 1.498638 5.413354 12.421232 -10.244624 -9.119771 16.658223 179.948983 -73.608204 -1.300168 -15.753372 55.973055 23.979766 -55.100652 -18.642137 2.167568 7.669080 -12.331900 7.408123 156.040644 73.504713 -23.233208 5.396449 -52.344118 -20.819417 -50.266565 18.327621 -2.010946 12.403314 7.348501 -20.059016 
16.556601 0.000000 153.443195 0.000000 95.118445 0.000000 0.494949 86.591164 -1.356032 97.118580 0.430839 -176.436551 -171.305516 -9.521499 172.841543 -36.871468 0.542817 1.680724 97.013534 -2.158256 -10.451562 21.454551 0.003089 -0.000001 156.233050 7.260308 -175.326298 -27.735610 3.126490 16.195483 66.137869 -10.293831 4.466957 21.454558 -0.003115 -0.000018 9.043123 1.069965 -0.990106 8.056530 2.206083 -1.903719 7.738365 2.194679 -1.916990 1.083154 5.564631 12.357551 -10.461674 -8.904032 16.601810 -179.612050 -73.323597 -1.744820 -16.047762 55.574667 24.633595 -53.094988 -18.903945 2.115048 8.258483 -12.724973 5.734582 154.759656 73.339218 -24.552606 5.146568 -52.251709 -21.015946 -51.691678 18.029855 -2.038735 12.028843 6.560243 -21.676423 
15.472107 0.000000 156.376621 0.000000 94.386776 0.000000 -0.046847 86.280159 -1.862556 97.292516 -1.383168 -176.857107 -171.136182 -5.538090 171.189594 -33.964161 0.556660 -0.013882 100.422004 -0.575029 -8.643445 21.454550 0.003097 0.000001 155.798008 9.385408 -176.380032 -24.223426 2.436472 15.927687 63.180459 -9.494771 5.997577 21.454562 -0.003107 -0.000018 9.396781 0.485103 -0.979569 8.772342 1.042953 -1.919622 8.454383 1.031481 -1.925877 0.600477 5.676525 12.330536 -11.093686 -8.773101 16.644669 -179.201064 -72.681518 -2.154581 -16.697159 54.391522 25.706334 -50.107887 -19.082456 2.026312 8.911789 -12.832311 3.366441 155.023916 73.117783 -24.295869 4.021312 -52.572769 -20.165556 -52.885321 17.942741 -2.073662 11.059834 5.648087 -23.902500 
14.372913 0.000000 159.330436 0.000000 93.563745 0.000000 -0.490231 86.279663 -2.202173 97.674018 -3.506615 -177.211548 -172.114155 -0.958503 173.600842 -32.932099 0.412572 -2.719763 101.057812 1.374423 -7.345480 21.454555 0.003090 0.000001 156.313319 11.322399 -176.612928 -19.874840 1.252942 16.293338 63.787376 -9.412649 6.959369 21.454560 -0.003105 -0.000018 9.800443 -0.234865 -0.958988 9.591383 -0.389499 -1.934116 9.273475 -0.401032 -1.931723 0.246465 5.995773 12.188392 -11.669364 -8.475709 16.567988 -179.624003 -72.627908 -1.718035 -17.337429 53.452681 27.107436 -45.817322 -19.098310 1.891466 9.561018 -12.593421 0.791505 156.046368 72.804120 -23.268718 3.237146 -53.530341 -19.448059 -53.473377 17.993082 -2.097419 9.779442 5.816920 -25.462792 
